HIERARCHY
ROOT Bip001_Pelvis
{
  OFFSET 34.4345 95.6767 -26.8758
  CHANNELS 6 Xposition Yposition Zposition Zrotation Xrotation Yrotation
  JOINT Bip001_Spine
  {
    OFFSET 1.4188e-005 10.2191 -0.0116013
    CHANNELS 3 Zrotation Xrotation Yrotation
    JOINT Bip001_L_Thigh
    {
      OFFSET 11.0458 -10.2192 0.0116197
      CHANNELS 3 Zrotation Xrotation Yrotation
      JOINT Bip001_L_Calf
      {
        OFFSET -0.707118 -44.0221 0.360014
        CHANNELS 3 Zrotation Xrotation Yrotation
        JOINT Bip001_L_Foot
        {
          OFFSET -0.651902 -40.5938 -3.56146
          CHANNELS 3 Zrotation Xrotation Yrotation
          JOINT Bip001_L_Toe0
          {
            OFFSET 0.0530839 -10.2181 13.1504
            CHANNELS 3 Zrotation Xrotation Yrotation
            End Site
            {
              OFFSET -1.02532e-005 0 7.55606
            }
          }
        }
      }
    }
    JOINT Bip001_R_Thigh
    {
      OFFSET -11.0458 -10.2191 0.0115893
      CHANNELS 3 Zrotation Xrotation Yrotation
      JOINT Bip001_R_Calf
      {
        OFFSET 0.706994 -44.0221 0.35984
        CHANNELS 3 Zrotation Xrotation Yrotation
        JOINT Bip001_R_Foot
        {
          OFFSET 0.651786 -40.5938 -3.5613
          CHANNELS 3 Zrotation Xrotation Yrotation
          JOINT Bip001_R_Toe0
          {
            OFFSET -0.0531479 -10.2181 13.1504
            CHANNELS 3 Zrotation Xrotation Yrotation
            End Site
            {
              OFFSET -1.02894e-005 0 7.55606
            }
          }
        }
      }
    }
    JOINT Bip001_Spine1
    {
      OFFSET 1.87041e-005 14.5736 1.08638
      CHANNELS 3 Zrotation Xrotation Yrotation
      JOINT Bip001_Spine2
      {
        OFFSET 2.24614e-005 14.5058 -1.69078
        CHANNELS 3 Zrotation Xrotation Yrotation
        JOINT Bip001_Neck
        {
          OFFSET 2.20278e-005 15.3945 -0.489414
          CHANNELS 3 Zrotation Xrotation Yrotation
          JOINT Bip001_L_Clavicle
          {
            OFFSET 6.06036 -0.000579998 0.00836775
            CHANNELS 3 Zrotation Xrotation Yrotation
            JOINT Bip001_L_UpperArm
            {
              OFFSET 11.5509 -0.0600302 0.00193952
              CHANNELS 3 Zrotation Xrotation Yrotation
              JOINT Bip001_L_Forearm
              {
                OFFSET 25.9523 0.0806089 -2.15551
                CHANNELS 3 Zrotation Xrotation Yrotation
                JOINT Bip001_L_Hand
                {
                  OFFSET 32.2475 0.153767 1.63968
                  CHANNELS 3 Zrotation Xrotation Yrotation
                  JOINT Bip001_L_Finger0
                  {
                    OFFSET 6.04639 -2.20976 5.90322
                    CHANNELS 3 Zrotation Xrotation Yrotation
                    End Site
                    {
                      OFFSET 4.22375 -1.43895 0.606485
                    }
                  }
                  JOINT Bip001_L_Finger1
                  {
                    OFFSET 11.0826 -0.704819 -0.198153
                    CHANNELS 3 Zrotation Xrotation Yrotation
                    End Site
                    {
                      OFFSET 6.20027 -0.397518 -0.0787166
                    }
                  }
                }
              }
            }
          }
          JOINT Bip001_R_Clavicle
          {
            OFFSET -6.06037 -0.000563197 0.00835105
            CHANNELS 3 Zrotation Xrotation Yrotation
            JOINT Bip001_R_UpperArm
            {
              OFFSET -11.5509 -0.0599978 0.00190698
              CHANNELS 3 Zrotation Xrotation Yrotation
              JOINT Bip001_R_Forearm
              {
                OFFSET -25.9523 0.0806822 -2.15589
                CHANNELS 3 Zrotation Xrotation Yrotation
                JOINT Bip001_R_Hand
                {
                  OFFSET -32.2475 0.153859 1.63989
                  CHANNELS 3 Zrotation Xrotation Yrotation
                  JOINT Bip001_R_Finger0
                  {
                    OFFSET -6.04641 -2.20976 5.90317
                    CHANNELS 3 Zrotation Xrotation Yrotation
                    End Site
                    {
                      OFFSET -4.22376 -1.43895 0.60647
                    }
                  }
                  JOINT Bip001_R_Finger1
                  {
                    OFFSET -11.0826 -0.704794 -0.198182
                    CHANNELS 3 Zrotation Xrotation Yrotation
                    End Site
                    {
                      OFFSET -6.20028 -0.397504 -0.0787333
                    }
                  }
                }
              }
            }
          }
          JOINT Bip001_Head
          {
            OFFSET 1.09673e-005 11.2744 2.05948
            CHANNELS 3 Zrotation Xrotation Yrotation
            End Site
            {
              OFFSET 2.89576e-005 20.8808 -2.77728e-005
            }
          }
        }
      }
    }
  }
}
MOTION
Frames:	5
Frame Time:	0.04
43.4868 88.2401 -30.6247 -3.29703 -8.49131 -6.22067 0.852332 3.80805 -0.216937 6.01199 -12.8739 10.8061 -6.0019 46.6789 2.71788 12.4132 -24.0855 2.07666 0.455568 -5.56419 0.819476 -10.5757 -13.1753 -0.140808 0.363218 40.184 3.6861 -11.1185 -17.2709 -1.08363 6.04856 -17.8138 5.98521 1.72487 7.6124 -0.492412 1.72488 7.61242 -0.492407 3.38593 -6.60665 3.25914 -21.6729 10.9724 -11.4519 -49.8393 33.5693 -4.68903 11.126 -11.0308 -28.152 8.17861 -1.39489 -5.02688 3.18055e-015 -3.18055e-015 3.18055e-015 -3.53113e-031 3.18056e-015 6.36111e-015 16.9934 12.3613 17.8518 52.3298 -55.413 10.8958 -50.2142 6.32381 88.3968 -63.2897 -7.84816 18.4919 3.18055e-015 3.18055e-015 -2.38542e-015 1.59028e-015 3.18056e-015 7.95139e-016 -4.96536 2.51839 5.14677 
43.5944 87.8379 -30.5819 -3.13991 -9.1383 -2.59414 0.66647 3.81892 0.161975 6.43877 -13.7521 7.32544 -8.26988 48.4137 3.91332 10.4967 -26.4227 1.99455 -0.0712671 -3.7579 0.899737 -10.7383 -11.8912 -1.68546 1.07684 41.2096 2.98105 -12.1523 -17.369 -2.91782 6.32186 -18.3486 6.07026 1.32401 7.63885 0.280292 1.32272 7.63899 0.280634 3.44941 -7.75899 1.76014 -21.997 11.56 -9.91807 -48.9874 33.3993 -5.77266 10.5375 -11.0952 -27.9176 9.15141 -1.49081 -4.92452 -3.18055e-015 3.18055e-015 -3.18055e-015 -3.18055e-015 6.36111e-015 -3.18055e-015 16.2387 14.343 21.0274 55.3221 -52.9148 17.2693 -50.1902 6.92241 85.873 -64.9835 -6.84585 19.0865 7.95139e-016 0 1.78906e-015 7.95139e-016 0 5.96354e-016 -4.77178 3.42728 3.66818 
43.5093 87.5329 -30.6069 -3.12483 -9.54914 1.17427 0.541499 3.7516 0.623502 6.67116 -14.7736 6.6604 -6.5285 50.0668 0.106201 10.4317 -27.142 2.05618 -0.0282371 -3.34788 0.628987 -10.4244 -10.5239 -2.80204 2.07741 41.7427 1.81645 -13.0748 -17.2769 -5.08889 6.48402 -18.6312 6.07641 1.05154 7.50894 1.21602 1.06714 7.50881 1.21352 3.77375 -8.60822 -0.119014 -22.9936 11.8163 -8.44186 -48.4073 33.286 -5.78246 9.90516 -11.4862 -28.3789 9.99897 -0.18225 -3.20227 0 3.18055e-015 -0 -3.18055e-015 6.36111e-015 -0 14.7522 15.7851 23.8519 57.1975 -49.1359 23.3557 -50.4905 7.41347 82.0528 -65.4472 -6.25165 19.9861 -7.95139e-016 2.48481e-016 -1.73937e-016 -2.38542e-015 2.98177e-016 1.758e-015 -5.10693 4.43553 2.04468 
42.9928 87.5441 -30.75 -3.70285 -9.45202 5.54744 0.619003 3.58605 0.986998 7.73159 -16.3913 4.53549 -6.7436 51.0938 -2.05555 10.6573 -27.083 2.08649 0.176881 -3.07225 0.285049 -9.18685 -9.11144 -3.21089 3.87908 41.0218 -0.42063 -13.8498 -16.4831 -7.74999 6.52188 -18.6751 6.03046 1.19366 7.18204 1.93975 1.17931 7.18213 1.94031 3.79271 -9.47528 -2.09565 -24.384 11.992 -6.57382 -47.3563 33.2785 -5.63469 10.0045 -10.6153 -28.1301 9.55095 0.431137 -2.31983 -6.36111e-015 2.22639e-014 -0 -7.95139e-015 1.59028e-014 -3.18055e-015 12.2219 16.6223 26.0554 57.8323 -42.8096 28.1325 -50.9292 7.09448 76.1636 -66.8537 -6.31692 20.5909 1.24141e-032 1.59028e-015 -4.47265e-016 1.24141e-032 1.59028e-015 -4.47265e-016 -5.58094 5.27473 0.304434 
42.8014 87.742 -31.0045 -3.81938 -8.94895 10.2373 0.603588 3.43132 1.23755 7.20605 -18.287 1.49552 -5.92248 51.2153 -3.99009 10.9113 -26.1887 2.04129 0.530938 -3.27245 -0.207986 -8.82779 -7.91537 -4.49757 5.65622 39.6672 -2.01864 -14.3488 -15.4012 -10.1021 6.51739 -18.6685 6.01971 1.13371 6.87474 2.44539 1.13473 6.87474 2.44547 3.45191 -10.1727 -4.02175 -25.3614 12.001 -4.87195 -45.8808 33.4995 -5.73849 10.382 -9.58905 -27.1816 7.92608 0.325733 -1.51251 -1.59028e-015 3.18055e-015 -0 3.18055e-015 3.18056e-015 -3.18055e-015 9.63134 17.092 28.641 56.0681 -36.0603 32.1911 -50.1377 6.50975 68.3426 -67.1256 -5.69534 21.5078 -2.98177e-016 6.36111e-015 6.21202e-016 -1.98785e-016 0 5.2181e-016 -5.83696 5.56432 -1.50893 
